<?xml version="1.0" standalone="no"?><svg xmlns:xlink="http://www.w3.org/1999/xlink" xmlns="http://www.w3.org/2000/svg" viewBox="0 0 1000 791.676527079905" preserveAspectRatio="xMaxYMax slice"><g transform="scale(1.375871614667892)"><rect x="0" y="0" width="726.8210526315789" height="575.4" fill="#ffffff"/><circle cx="106" cy="15.139999999999999" r="3.03" fill="#edf3ff"/><circle cx="166.56" cy="15.139999999999999" r="3.03" fill="#f6f9ff"/><circle cx="287.7" cy="15.139999999999999" r="3.03" fill="#ffebe9"/><circle cx="560.26" cy="15.139999999999999" r="3.03" fill="#f5f8ff"/><circle cx="378.54999999999995" cy="45.43" r="3.03" fill="#febab1"/><circle cx="408.84" cy="45.43" r="3.03" fill="#fecdc6"/><circle cx="620.8299999999999" cy="75.71000000000001" r="3.03" fill="#ffedea"/><circle cx="136.28" cy="106" r="3.03" fill="#f7f9ff"/><circle cx="590.54" cy="136.28" r="3.03" fill="#eaf1ff"/><circle cx="106" cy="166.56" r="3.03" fill="#f9fbff"/><circle cx="45.43" cy="196.85" r="3.03" fill="#edf2ff"/><circle cx="75.71000000000001" cy="196.85" r="3.03" fill="#ffefed"/><circle cx="317.98999999999995" cy="196.85" r="3.03" fill="#fdaca1"/><circle cx="378.54999999999995" cy="196.85" r="3.03" fill="#fffdfc"/><circle cx="620.8299999999999" cy="196.85" r="3.03" fill="#ffeeeb"/><circle cx="651.11" cy="196.85" r="3.03" fill="#fec3bb"/><circle cx="136.28" cy="257.41999999999996" r="3.03" fill="#eff4ff"/><circle cx="590.54" cy="257.41999999999996" r="3.03" fill="#e3ebff"/><circle cx="681.4" cy="257.41999999999996" r="3.03" fill="#e5edff"/><circle cx="15.139999999999999" cy="287.7" r="3.03" fill="#e7eeff"/><circle cx="378.54999999999995" cy="287.7" r="3.03" fill="#f2f6ff"/><circle cx="408.84" cy="287.7" r="3.03" fill="#feccc5"/><circle cx="408.84" cy="317.98999999999995" r="3.03" fill="#fafbff"/><circle cx="590.54" cy="317.98999999999995" r="3.03" fill="#fecec7"/><circle cx="590.54" cy="348.27" r="3.03" fill="#fedcd7"/><circle cx="75.71000000000001" cy="408.84" r="3.03" fill="#feccc6"/><circle cx="227.13" cy="408.84" r="3.03" fill="#eef3ff"/><circle cx="257.41999999999996" cy="408.84" r="3.03" fill="#fff1ef"/><circle cx="651.11" cy="408.84" r="3.03" fill="#ffeae7"/><circle cx="166.56" cy="439.11999999999995" r="3.03" fill="#fafbff"/><circle cx="227.13" cy="439.11999999999995" r="3.03" fill="#fee3e0"/><circle cx="408.84" cy="439.11999999999995" r="3.03" fill="#e9f0ff"/><circle cx="499.69" cy="439.11999999999995" r="3.03" fill="#f8faff"/><circle cx="651.11" cy="439.11999999999995" r="3.03" fill="#eff4ff"/><circle cx="439.11999999999995" cy="469.40999999999997" r="3.03" fill="#feddd8"/><circle cx="651.11" cy="469.40999999999997" r="3.03" fill="#fda79b"/><circle cx="711.68" cy="469.40999999999997" r="3.03" fill="#f9fbff"/><circle cx="136.28" cy="499.69" r="3.03" fill="#e9efff"/><circle cx="15.139999999999999" cy="529.98" r="3.03" fill="#fdb0a6"/><circle cx="106" cy="529.98" r="3.03" fill="#fff4f2"/><circle cx="348.27" cy="529.98" r="3.03" fill="#fdb7ae"/><circle cx="529.98" cy="529.98" r="3.03" fill="#f7f9ff"/><circle cx="560.26" cy="529.98" r="3.03" fill="#fda599"/></g></svg>