<?xml version="1.0" standalone="no"?><svg xmlns:xlink="http://www.w3.org/1999/xlink" xmlns="http://www.w3.org/2000/svg" viewBox="0 0 1000 791.676527079905" preserveAspectRatio="xMaxYMax slice"><g transform="scale(1.375871614667892)"><rect x="0" y="0" width="726.8210526315789" height="575.4" fill="#ffffff"/><path d="M 37.86 22.71 A 15.14 15.14 0 0 0 53 7.57 L 37.86 7.57" fill="#fffdfd"/><path d="M 158.99 98.42 A 15.14 15.14 0 0 1  174.13 113.56 L 158.99 98.42 A 15.14 15.14 0 0 0 174.13 113.56" fill="#edf2ff"/><path d="M 280.13 113.56 A 15.14 15.14 0 0 1  295.27 98.42 L 295.27 113.56" fill="#e8efff"/><path d="M 98.42 128.71 A 15.14 15.14 0 0 1  113.56 143.85000000000002 L 98.42 128.71 A 15.14 15.14 0 0 0 113.56 143.85000000000002" fill="#ffeae7"/><path d="M 37.86 158.99 A 15.14 15.14 0 0 1 53 174.13 L 37.86 174.13" fill="#e3ebff"/><path d="M 219.56 174.13 A 15.14 15.14 0 0 1  234.7 158.99 L 234.7 174.13" fill="#f9fbff"/><path d="M 461.83 174.13 A 15.14 15.14 0 0 0 476.96999999999997 158.99 L 461.83 158.99" fill="#fedcd7"/><path d="M 522.4 158.99 A 15.14 15.14 0 0 1 537.54 174.13 L 522.4 174.13" fill="#f6f9ff"/><path d="M 613.26 204.42000000000002 A 15.14 15.14 0 0 0 628.4 189.28 L 613.26 189.28" fill="#fee3e0"/><path d="M 98.42 219.56 A 15.14 15.14 0 0 1 113.56 234.7 L 98.42 234.7" fill="#fda69b"/><path d="M 189.28 234.7 A 15.14 15.14 0 0 1  204.42000000000002 219.56 L 204.42000000000002 234.7" fill="#fcfdff"/><path d="M 673.82 234.7 A 15.14 15.14 0 0 1  688.96 219.56 L 673.82 234.7 A 15.14 15.14 0 0 0 688.96 219.56" fill="#ebf1ff"/><path d="M 158.99 249.84 A 15.14 15.14 0 0 0 174.13 264.98 L 174.13 249.84" fill="#febbb2"/><path d="M 189.28 249.84 A 15.14 15.14 0 0 0 204.42000000000002 264.98 L 204.42000000000002 249.84" fill="#f9fbff"/><path d="M 340.7 249.84 A 15.14 15.14 0 0 1  355.84 264.98 L 340.7 249.84 A 15.14 15.14 0 0 0 355.84 264.98" fill="#f9fbff"/><path d="M 461.83 249.84 A 15.14 15.14 0 0 1 476.96999999999997 264.98 L 461.83 264.98" fill="#eef3ff"/><path d="M 704.11 264.98 A 15.14 15.14 0 0 1  719.25 249.84 L 704.11 264.98 A 15.14 15.14 0 0 0 719.25 249.84" fill="#f2f6ff"/><path d="M 340.7 295.27 A 15.14 15.14 0 0 0 355.84 280.13 L 340.7 280.13" fill="#e9f0ff"/><path d="M 522.4 280.13 A 15.14 15.14 0 0 1 537.54 295.27 L 522.4 295.27" fill="#fec1b9"/><path d="M 613.26 280.13 A 15.14 15.14 0 0 1 628.4 295.27 L 613.26 295.27" fill="#fed4ce"/><path d="M 310.41 310.41 A 15.14 15.14 0 0 1  325.55 325.55 L 310.41 310.41 A 15.14 15.14 0 0 0 325.55 325.55" fill="#fbfcff"/><path d="M 492.12 325.55 A 15.14 15.14 0 0 1  507.26 310.41 L 507.26 325.55" fill="#ffffff"/><path d="M 552.69 325.55 A 15.14 15.14 0 0 1  567.83 310.41 L 567.83 325.55" fill="#f1f5ff"/><path d="M 492.12 340.7 A 15.14 15.14 0 0 1 507.26 355.84 L 492.12 355.84" fill="#fff6f5"/><path d="M 552.69 340.7 A 15.14 15.14 0 0 1 567.83 355.84 L 552.69 355.84" fill="#e4ecff"/><path d="M 219.56 370.98 A 15.14 15.14 0 0 1  234.7 386.12 L 219.56 370.98 A 15.14 15.14 0 0 0 234.7 386.12" fill="#e6edff"/><path d="M 249.84 370.98 A 15.14 15.14 0 0 1  264.98 386.12 L 249.84 370.98 A 15.14 15.14 0 0 0 264.98 386.12" fill="#e3ebff"/><path d="M 68.14 416.40999999999997 A 15.14 15.14 0 0 1  83.28 401.27 L 83.28 416.40999999999997" fill="#f6f9ff"/><path d="M 704.11 416.40999999999997 A 15.14 15.14 0 0 1  719.25 401.27 L 719.25 416.40999999999997" fill="#fdaca1"/><path d="M 128.71 431.55 A 15.14 15.14 0 0 0 143.85000000000002 446.69 L 143.85000000000002 431.55" fill="#fdb3a9"/><path d="M 249.84 446.69 A 15.14 15.14 0 0 0 264.98 431.55 L 249.84 431.55" fill="#fed7d2"/><path d="M 552.69 431.55 A 15.14 15.14 0 0 0 567.83 446.69 L 567.83 431.55" fill="#ffffff"/><path d="M 643.54 446.69 A 15.14 15.14 0 0 0 658.68 431.55 L 643.54 431.55" fill="#fff9f8"/><path d="M 98.42 476.96999999999997 A 15.14 15.14 0 0 1  113.56 461.83 L 98.42 476.96999999999997 A 15.14 15.14 0 0 0 113.56 461.83" fill="#e6eeff"/><path d="M 158.99 476.96999999999997 A 15.14 15.14 0 0 1  174.13 461.83 L 174.13 476.96999999999997" fill="#e9f0ff"/><path d="M 158.99 492.12 A 15.14 15.14 0 0 1  174.13 507.26 L 158.99 492.12 A 15.14 15.14 0 0 0 174.13 507.26" fill="#f0f4ff"/><path d="M 249.84 507.26 A 15.14 15.14 0 0 0 264.98 492.12 L 249.84 492.12" fill="#fec5be"/><path d="M 340.7 492.12 A 15.14 15.14 0 0 0 355.84 507.26 L 355.84 492.12" fill="#fdaea3"/><path d="M 37.86 522.4 A 15.14 15.14 0 0 0 53 537.54 L 53 522.4" fill="#f4f7ff"/><path d="M 370.98 522.4 A 15.14 15.14 0 0 1 386.12 537.54 L 370.98 537.54" fill="#f8faff"/><path d="M 158.99 567.83 A 15.14 15.14 0 0 1  174.13 552.69 L 158.99 567.83 A 15.14 15.14 0 0 0 174.13 552.69" fill="#fedbd6"/><path d="M 492.12 552.69 A 15.14 15.14 0 0 0 507.26 567.83 L 507.26 552.69" fill="#e1eaff"/><path d="M 613.26 552.69 A 15.14 15.14 0 0 1  628.4 567.83 L 613.26 552.69 A 15.14 15.14 0 0 0 628.4 567.83" fill="#f7faff"/></g></svg>