<?xml version="1.0" standalone="no"?><svg xmlns:xlink="http://www.w3.org/1999/xlink" xmlns="http://www.w3.org/2000/svg" viewBox="0 0 1000 791.676527079905" preserveAspectRatio="xMaxYMax slice"><g transform="scale(1.375871614667892)"><rect x="0" y="0" width="726.8210526315789" height="575.4" fill="#ffffff"/><rect x="154.44947368421055" y="3.028421052631579" width="24.22736842105263" height="24.22736842105263" fill="#ffffff"/><rect x="154.45" y="3.03" width="12.11" height="12.11" fill="#fecac3"/><rect x="166.56" y="3.03" width="12.11" height="12.11" fill="#fefeff"/><rect x="154.45" y="15.14" width="12.11" height="12.11" fill="#fda69b"/><rect x="166.56" y="15.14" width="12.11" height="12.11" fill="#fecac3"/><rect x="578.4284210526315" y="3.028421052631579" width="24.22736842105263" height="24.22736842105263" fill="#ffffff"/><rect x="578.43" y="3.03" width="12.11" height="12.11" fill="#ecf2ff"/><rect x="590.54" y="3.03" width="12.11" height="12.11" fill="#e6edff"/><rect x="578.43" y="15.14" width="12.11" height="12.11" fill="#fee4e1"/><rect x="590.54" y="15.14" width="12.11" height="12.11" fill="#fec4bc"/><rect x="669.2810526315789" y="3.028421052631579" width="24.22736842105263" height="24.22736842105263" fill="#ffffff"/><rect x="669.28" y="3.03" width="12.11" height="12.11" fill="#fbfcff"/><rect x="681.39" y="3.03" width="12.11" height="12.11" fill="#f1f5ff"/><rect x="669.28" y="15.14" width="12.11" height="12.11" fill="#f2f6ff"/><rect x="681.39" y="15.14" width="12.11" height="12.11" fill="#fdb1a7"/><rect x="699.5652631578947" y="3.028421052631579" width="24.22736842105263" height="24.22736842105263" fill="#ffffff"/><rect x="699.57" y="3.03" width="12.11" height="12.11" fill="#eef3ff"/><rect x="711.68" y="3.03" width="12.11" height="12.11" fill="#f7f9ff"/><rect x="699.57" y="15.14" width="12.11" height="12.11" fill="#e7eeff"/><rect x="711.68" y="15.14" width="12.11" height="12.11" fill="#e6edff"/><rect x="3.028421052631579" y="33.31263157894737" width="24.22736842105263" height="24.22736842105263" fill="#ffffff"/><rect x="3.03" y="33.31" width="12.11" height="12.11" fill="#eff4ff"/><rect x="15.14" y="33.31" width="12.11" height="12.11" fill="#e6edff"/><rect x="3.03" y="45.43" width="12.11" height="12.11" fill="#fff4f2"/><rect x="15.14" y="45.43" width="12.11" height="12.11" fill="#fecdc6"/><rect x="124.16526315789474" y="33.31263157894737" width="24.22736842105263" height="24.22736842105263" fill="#ffffff"/><rect x="124.17" y="33.31" width="12.11" height="12.11" fill="#fedbd6"/><rect x="136.28" y="33.31" width="12.11" height="12.11" fill="#f3f7ff"/><rect x="124.17" y="45.43" width="12.11" height="12.11" fill="#e1eaff"/><rect x="136.28" y="45.43" width="12.11" height="12.11" fill="#fdb1a7"/><rect x="215.0178947368421" y="33.31263157894737" width="24.22736842105263" height="24.22736842105263" fill="#ffffff"/><rect x="215.02" y="33.31" width="12.11" height="12.11" fill="#e5edff"/><rect x="227.13" y="33.31" width="12.11" height="12.11" fill="#f0f4ff"/><rect x="215.02" y="45.43" width="12.11" height="12.11" fill="#fbfcff"/><rect x="227.13" y="45.43" width="12.11" height="12.11" fill="#fdb0a6"/><rect x="487.5757894736842" y="33.31263157894737" width="24.22736842105263" height="24.22736842105263" fill="#ffffff"/><rect x="487.58" y="33.31" width="12.11" height="12.11" fill="#fdb9b0"/><rect x="499.69" y="33.31" width="12.11" height="12.11" fill="#fafbff"/><rect x="487.58" y="45.43" width="12.11" height="12.11" fill="#fec6bf"/><rect x="499.69" y="45.43" width="12.11" height="12.11" fill="#f2f6ff"/><rect x="93.88105263157894" y="63.59684210526316" width="24.22736842105263" height="24.22736842105263" fill="#ffffff"/><rect x="93.88" y="63.6" width="12.11" height="12.11" fill="#fff1f0"/><rect x="105.99" y="63.6" width="12.11" height="12.11" fill="#fecdc6"/><rect x="93.88" y="75.71" width="12.11" height="12.11" fill="#fec0b8"/><rect x="105.99" y="75.71" width="12.11" height="12.11" fill="#f7f9ff"/><rect x="517.8599999999999" y="63.59684210526316" width="24.22736842105263" height="24.22736842105263" fill="#ffffff"/><rect x="517.86" y="63.6" width="12.11" height="12.11" fill="#fdaea4"/><rect x="529.97" y="63.6" width="12.11" height="12.11" fill="#ffeeec"/><rect x="517.86" y="75.71" width="12.11" height="12.11" fill="#e9efff"/><rect x="529.97" y="75.71" width="12.11" height="12.11" fill="#fafcff"/><rect x="154.44947368421055" y="93.88105263157894" width="24.22736842105263" height="24.22736842105263" fill="#ffffff"/><rect x="154.45" y="93.88" width="12.11" height="12.11" fill="#f9fbff"/><rect x="166.56" y="93.88" width="12.11" height="12.11" fill="#febeb5"/><rect x="154.45" y="105.99" width="12.11" height="12.11" fill="#fdb1a7"/><rect x="166.56" y="105.99" width="12.11" height="12.11" fill="#f1f6ff"/><rect x="215.0178947368421" y="93.88105263157894" width="24.22736842105263" height="24.22736842105263" fill="#ffffff"/><rect x="215.02" y="93.88" width="12.11" height="12.11" fill="#fdb2a9"/><rect x="227.13" y="93.88" width="12.11" height="12.11" fill="#fee4e1"/><rect x="215.02" y="105.99" width="12.11" height="12.11" fill="#fff3f1"/><rect x="227.13" y="105.99" width="12.11" height="12.11" fill="#fee1dd"/><rect x="275.5863157894737" y="93.88105263157894" width="24.22736842105263" height="24.22736842105263" fill="#ffffff"/><rect x="275.59" y="93.88" width="12.11" height="12.11" fill="#fee0dc"/><rect x="287.7" y="93.88" width="12.11" height="12.11" fill="#ffeeec"/><rect x="275.59" y="105.99" width="12.11" height="12.11" fill="#e9f0ff"/><rect x="287.7" y="105.99" width="12.11" height="12.11" fill="#fffefe"/><rect x="396.72315789473686" y="93.88105263157894" width="24.22736842105263" height="24.22736842105263" fill="#ffffff"/><rect x="396.72" y="93.88" width="12.11" height="12.11" fill="#ffeae7"/><rect x="408.84" y="93.88" width="12.11" height="12.11" fill="#eef3ff"/><rect x="396.72" y="105.99" width="12.11" height="12.11" fill="#e1eaff"/><rect x="408.84" y="105.99" width="12.11" height="12.11" fill="#e5ecff"/><rect x="548.1442105263158" y="93.88105263157894" width="24.22736842105263" height="24.22736842105263" fill="#ffffff"/><rect x="548.14" y="93.88" width="12.11" height="12.11" fill="#fdb4aa"/><rect x="560.26" y="93.88" width="12.11" height="12.11" fill="#fff8f7"/><rect x="548.14" y="105.99" width="12.11" height="12.11" fill="#fed0ca"/><rect x="560.26" y="105.99" width="12.11" height="12.11" fill="#fed6d0"/><rect x="608.7126315789474" y="93.88105263157894" width="24.22736842105263" height="24.22736842105263" fill="#ffffff"/><rect x="608.71" y="93.88" width="12.11" height="12.11" fill="#fecac3"/><rect x="620.83" y="93.88" width="12.11" height="12.11" fill="#fec1b9"/><rect x="608.71" y="105.99" width="12.11" height="12.11" fill="#fda397"/><rect x="620.83" y="105.99" width="12.11" height="12.11" fill="#feb9b0"/><rect x="336.15473684210525" y="124.16526315789474" width="24.22736842105263" height="24.22736842105263" fill="#ffffff"/><rect x="336.15" y="124.17" width="12.11" height="12.11" fill="#fff5f3"/><rect x="348.27" y="124.17" width="12.11" height="12.11" fill="#fec6be"/><rect x="336.15" y="136.28" width="12.11" height="12.11" fill="#e6eeff"/><rect x="348.27" y="136.28" width="12.11" height="12.11" fill="#ebf1ff"/><rect x="578.4284210526315" y="124.16526315789474" width="24.22736842105263" height="24.22736842105263" fill="#ffffff"/><rect x="578.43" y="124.17" width="12.11" height="12.11" fill="#fed6d1"/><rect x="590.54" y="124.17" width="12.11" height="12.11" fill="#ffe8e5"/><rect x="578.43" y="136.28" width="12.11" height="12.11" fill="#febfb7"/><rect x="590.54" y="136.28" width="12.11" height="12.11" fill="#fee4e0"/><rect x="669.2810526315789" y="154.44947368421055" width="24.22736842105263" height="24.22736842105263" fill="#ffffff"/><rect x="669.28" y="154.45" width="12.11" height="12.11" fill="#e9f0ff"/><rect x="681.39" y="154.45" width="12.11" height="12.11" fill="#ffffff"/><rect x="669.28" y="166.56" width="12.11" height="12.11" fill="#fedfdb"/><rect x="681.39" y="166.56" width="12.11" height="12.11" fill="#f7f9ff"/><rect x="3.028421052631579" y="184.73368421052632" width="24.22736842105263" height="24.22736842105263" fill="#ffffff"/><rect x="3.03" y="184.73" width="12.11" height="12.11" fill="#fdb8af"/><rect x="15.14" y="184.73" width="12.11" height="12.11" fill="#e8efff"/><rect x="3.03" y="196.85" width="12.11" height="12.11" fill="#ffffff"/><rect x="15.14" y="196.85" width="12.11" height="12.11" fill="#fda296"/><rect x="33.31263157894737" y="184.73368421052632" width="24.22736842105263" height="24.22736842105263" fill="#ffffff"/><rect x="33.31" y="184.73" width="12.11" height="12.11" fill="#fafcff"/><rect x="45.43" y="184.73" width="12.11" height="12.11" fill="#fdb7ad"/><rect x="33.31" y="196.85" width="12.11" height="12.11" fill="#e2ebff"/><rect x="45.43" y="196.85" width="12.11" height="12.11" fill="#fff1f0"/><rect x="638.9968421052631" y="184.73368421052632" width="24.22736842105263" height="24.22736842105263" fill="#ffffff"/><rect x="639" y="184.73" width="12.11" height="12.11" fill="#f7f9ff"/><rect x="651.11" y="184.73" width="12.11" height="12.11" fill="#e9efff"/><rect x="639" y="196.85" width="12.11" height="12.11" fill="#fcfdff"/><rect x="651.11" y="196.85" width="12.11" height="12.11" fill="#fdada2"/><rect x="184.73368421052632" y="215.0178947368421" width="24.22736842105263" height="24.22736842105263" fill="#ffffff"/><rect x="184.73" y="215.02" width="12.11" height="12.11" fill="#fda397"/><rect x="196.85" y="215.02" width="12.11" height="12.11" fill="#fed8d3"/><rect x="184.73" y="227.13" width="12.11" height="12.11" fill="#e7eeff"/><rect x="196.85" y="227.13" width="12.11" height="12.11" fill="#fda397"/><rect x="245.3021052631579" y="245.3021052631579" width="24.22736842105263" height="24.22736842105263" fill="#ffffff"/><rect x="245.3" y="245.3" width="12.11" height="12.11" fill="#edf2ff"/><rect x="257.42" y="245.3" width="12.11" height="12.11" fill="#ffedea"/><rect x="245.3" y="257.42" width="12.11" height="12.11" fill="#fdb3a9"/><rect x="257.42" y="257.42" width="12.11" height="12.11" fill="#f7f9ff"/><rect x="457.2915789473684" y="245.3021052631579" width="24.22736842105263" height="24.22736842105263" fill="#ffffff"/><rect x="457.29" y="245.3" width="12.11" height="12.11" fill="#fda498"/><rect x="469.41" y="245.3" width="12.11" height="12.11" fill="#fff9f8"/><rect x="457.29" y="257.42" width="12.11" height="12.11" fill="#fecfc9"/><rect x="469.41" y="257.42" width="12.11" height="12.11" fill="#f6f9ff"/><rect x="33.31263157894737" y="275.5863157894737" width="24.22736842105263" height="24.22736842105263" fill="#ffffff"/><rect x="33.31" y="275.59" width="12.11" height="12.11" fill="#fdfdff"/><rect x="45.43" y="275.59" width="12.11" height="12.11" fill="#f5f8ff"/><rect x="33.31" y="287.7" width="12.11" height="12.11" fill="#febeb5"/><rect x="45.43" y="287.7" width="12.11" height="12.11" fill="#fff7f6"/><rect x="699.5652631578947" y="275.5863157894737" width="24.22736842105263" height="24.22736842105263" fill="#ffffff"/><rect x="699.57" y="275.59" width="12.11" height="12.11" fill="#feccc6"/><rect x="711.68" y="275.59" width="12.11" height="12.11" fill="#fcfdff"/><rect x="699.57" y="287.7" width="12.11" height="12.11" fill="#edf2ff"/><rect x="711.68" y="287.7" width="12.11" height="12.11" fill="#fdb5ab"/><rect x="487.5757894736842" y="305.8705263157895" width="24.22736842105263" height="24.22736842105263" fill="#ffffff"/><rect x="487.58" y="305.87" width="12.11" height="12.11" fill="#eaf0ff"/><rect x="499.69" y="305.87" width="12.11" height="12.11" fill="#ecf2ff"/><rect x="487.58" y="317.98" width="12.11" height="12.11" fill="#e2ebff"/><rect x="499.69" y="317.98" width="12.11" height="12.11" fill="#e8efff"/><rect x="608.7126315789474" y="336.15473684210525" width="24.22736842105263" height="24.22736842105263" fill="#ffffff"/><rect x="608.71" y="336.15" width="12.11" height="12.11" fill="#ebf1ff"/><rect x="620.83" y="336.15" width="12.11" height="12.11" fill="#e7eeff"/><rect x="608.71" y="348.27" width="12.11" height="12.11" fill="#fda498"/><rect x="620.83" y="348.27" width="12.11" height="12.11" fill="#e8efff"/><rect x="699.5652631578947" y="336.15473684210525" width="24.22736842105263" height="24.22736842105263" fill="#ffffff"/><rect x="699.57" y="336.15" width="12.11" height="12.11" fill="#e2ebff"/><rect x="711.68" y="336.15" width="12.11" height="12.11" fill="#fdb4aa"/><rect x="699.57" y="348.27" width="12.11" height="12.11" fill="#fdb4ab"/><rect x="711.68" y="348.27" width="12.11" height="12.11" fill="#e9f0ff"/><rect x="275.5863157894737" y="366.43894736842105" width="24.22736842105263" height="24.22736842105263" fill="#ffffff"/><rect x="275.59" y="366.44" width="12.11" height="12.11" fill="#edf2ff"/><rect x="287.7" y="366.44" width="12.11" height="12.11" fill="#fdada2"/><rect x="275.59" y="378.55" width="12.11" height="12.11" fill="#fff1ef"/><rect x="287.7" y="378.55" width="12.11" height="12.11" fill="#fed8d2"/><rect x="336.15473684210525" y="366.43894736842105" width="24.22736842105263" height="24.22736842105263" fill="#ffffff"/><rect x="336.15" y="366.44" width="12.11" height="12.11" fill="#fefeff"/><rect x="348.27" y="366.44" width="12.11" height="12.11" fill="#febcb4"/><rect x="336.15" y="378.55" width="12.11" height="12.11" fill="#feccc6"/><rect x="348.27" y="378.55" width="12.11" height="12.11" fill="#feded9"/><rect x="366.43894736842105" y="366.43894736842105" width="24.22736842105263" height="24.22736842105263" fill="#ffffff"/><rect x="366.44" y="366.44" width="12.11" height="12.11" fill="#e9efff"/><rect x="378.55" y="366.44" width="12.11" height="12.11" fill="#ebf1ff"/><rect x="366.44" y="378.55" width="12.11" height="12.11" fill="#f6f9ff"/><rect x="378.55" y="378.55" width="12.11" height="12.11" fill="#fecec8"/><rect x="699.5652631578947" y="366.43894736842105" width="24.22736842105263" height="24.22736842105263" fill="#ffffff"/><rect x="699.57" y="366.44" width="12.11" height="12.11" fill="#ecf1ff"/><rect x="711.68" y="366.44" width="12.11" height="12.11" fill="#ebf1ff"/><rect x="699.57" y="378.55" width="12.11" height="12.11" fill="#feccc5"/><rect x="711.68" y="378.55" width="12.11" height="12.11" fill="#f4f7ff"/><rect x="427.0073684210526" y="396.72315789473686" width="24.22736842105263" height="24.22736842105263" fill="#ffffff"/><rect x="427.01" y="396.72" width="12.11" height="12.11" fill="#f4f7ff"/><rect x="439.12" y="396.72" width="12.11" height="12.11" fill="#f3f7ff"/><rect x="427.01" y="408.84" width="12.11" height="12.11" fill="#e5edff"/><rect x="439.12" y="408.84" width="12.11" height="12.11" fill="#eef3ff"/><rect x="578.4284210526315" y="396.72315789473686" width="24.22736842105263" height="24.22736842105263" fill="#ffffff"/><rect x="578.43" y="396.72" width="12.11" height="12.11" fill="#fdaa9f"/><rect x="590.54" y="396.72" width="12.11" height="12.11" fill="#fed5d0"/><rect x="578.43" y="408.84" width="12.11" height="12.11" fill="#fafbff"/><rect x="590.54" y="408.84" width="12.11" height="12.11" fill="#fecfc9"/><rect x="275.5863157894737" y="427.0073684210526" width="24.22736842105263" height="24.22736842105263" fill="#ffffff"/><rect x="275.59" y="427.01" width="12.11" height="12.11" fill="#fec5be"/><rect x="287.7" y="427.01" width="12.11" height="12.11" fill="#e7eeff"/><rect x="275.59" y="439.12" width="12.11" height="12.11" fill="#fdafa4"/><rect x="287.7" y="439.12" width="12.11" height="12.11" fill="#febeb6"/><rect x="457.2915789473684" y="427.0073684210526" width="24.22736842105263" height="24.22736842105263" fill="#ffffff"/><rect x="457.29" y="427.01" width="12.11" height="12.11" fill="#fbfcff"/><rect x="469.41" y="427.01" width="12.11" height="12.11" fill="#febdb4"/><rect x="457.29" y="439.12" width="12.11" height="12.11" fill="#e8efff"/><rect x="469.41" y="439.12" width="12.11" height="12.11" fill="#fecbc4"/><rect x="517.8599999999999" y="427.0073684210526" width="24.22736842105263" height="24.22736842105263" fill="#ffffff"/><rect x="517.86" y="427.01" width="12.11" height="12.11" fill="#eff3ff"/><rect x="529.97" y="427.01" width="12.11" height="12.11" fill="#f4f8ff"/><rect x="517.86" y="439.12" width="12.11" height="12.11" fill="#e6eeff"/><rect x="529.97" y="439.12" width="12.11" height="12.11" fill="#f0f4ff"/><rect x="638.9968421052631" y="457.2915789473684" width="24.22736842105263" height="24.22736842105263" fill="#ffffff"/><rect x="639" y="457.29" width="12.11" height="12.11" fill="#fedbd7"/><rect x="651.11" y="457.29" width="12.11" height="12.11" fill="#fbfcff"/><rect x="639" y="469.41" width="12.11" height="12.11" fill="#fff3f1"/><rect x="651.11" y="469.41" width="12.11" height="12.11" fill="#fafbff"/><rect x="184.73368421052632" y="487.5757894736842" width="24.22736842105263" height="24.22736842105263" fill="#ffffff"/><rect x="184.73" y="487.58" width="12.11" height="12.11" fill="#f6f9ff"/><rect x="196.85" y="487.58" width="12.11" height="12.11" fill="#f2f6ff"/><rect x="184.73" y="499.69" width="12.11" height="12.11" fill="#fffafa"/><rect x="196.85" y="499.69" width="12.11" height="12.11" fill="#fecac3"/><rect x="638.9968421052631" y="487.5757894736842" width="24.22736842105263" height="24.22736842105263" fill="#ffffff"/><rect x="639" y="487.58" width="12.11" height="12.11" fill="#fed7d1"/><rect x="651.11" y="487.58" width="12.11" height="12.11" fill="#fdb0a6"/><rect x="639" y="499.69" width="12.11" height="12.11" fill="#fda397"/><rect x="651.11" y="499.69" width="12.11" height="12.11" fill="#eaf1ff"/><rect x="63.59684210526316" y="517.8599999999999" width="24.22736842105263" height="24.22736842105263" fill="#ffffff"/><rect x="63.6" y="517.86" width="12.11" height="12.11" fill="#f5f8ff"/><rect x="75.71" y="517.86" width="12.11" height="12.11" fill="#e5edff"/><rect x="63.6" y="529.97" width="12.11" height="12.11" fill="#fff1ef"/><rect x="75.71" y="529.97" width="12.11" height="12.11" fill="#eaf0ff"/><rect x="154.44947368421055" y="517.8599999999999" width="24.22736842105263" height="24.22736842105263" fill="#ffffff"/><rect x="154.45" y="517.86" width="12.11" height="12.11" fill="#fbfcff"/><rect x="166.56" y="517.86" width="12.11" height="12.11" fill="#eaf0ff"/><rect x="154.45" y="529.97" width="12.11" height="12.11" fill="#fed8d3"/><rect x="166.56" y="529.97" width="12.11" height="12.11" fill="#eff4ff"/><rect x="215.0178947368421" y="517.8599999999999" width="24.22736842105263" height="24.22736842105263" fill="#ffffff"/><rect x="215.02" y="517.86" width="12.11" height="12.11" fill="#fefeff"/><rect x="227.13" y="517.86" width="12.11" height="12.11" fill="#fff7f6"/><rect x="215.02" y="529.97" width="12.11" height="12.11" fill="#fee5e2"/><rect x="227.13" y="529.97" width="12.11" height="12.11" fill="#fee1dd"/><rect x="608.7126315789474" y="517.8599999999999" width="24.22736842105263" height="24.22736842105263" fill="#ffffff"/><rect x="608.71" y="517.86" width="12.11" height="12.11" fill="#fec1b9"/><rect x="620.83" y="517.86" width="12.11" height="12.11" fill="#f0f4ff"/><rect x="608.71" y="529.97" width="12.11" height="12.11" fill="#ffefed"/><rect x="620.83" y="529.97" width="12.11" height="12.11" fill="#fed4cf"/><rect x="336.15473684210525" y="548.1442105263158" width="24.22736842105263" height="24.22736842105263" fill="#ffffff"/><rect x="336.15" y="548.14" width="12.11" height="12.11" fill="#fff6f5"/><rect x="348.27" y="548.14" width="12.11" height="12.11" fill="#fdb1a6"/><rect x="336.15" y="560.26" width="12.11" height="12.11" fill="#fcfdff"/><rect x="348.27" y="560.26" width="12.11" height="12.11" fill="#f9fbff"/><rect x="517.8599999999999" y="548.1442105263158" width="24.22736842105263" height="24.22736842105263" fill="#ffffff"/><rect x="517.86" y="548.14" width="12.11" height="12.11" fill="#febfb7"/><rect x="529.97" y="548.14" width="12.11" height="12.11" fill="#fdfeff"/><rect x="517.86" y="560.26" width="12.11" height="12.11" fill="#fededa"/><rect x="529.97" y="560.26" width="12.11" height="12.11" fill="#febab1"/><rect x="699.5652631578947" y="548.1442105263158" width="24.22736842105263" height="24.22736842105263" fill="#ffffff"/><rect x="699.57" y="548.14" width="12.11" height="12.11" fill="#fff9f8"/><rect x="711.68" y="548.14" width="12.11" height="12.11" fill="#fcfdff"/><rect x="699.57" y="560.26" width="12.11" height="12.11" fill="#fecdc6"/><rect x="711.68" y="560.26" width="12.11" height="12.11" fill="#fec7c0"/></g></svg>