<?xml version="1.0" standalone="no"?><svg xmlns:xlink="http://www.w3.org/1999/xlink" xmlns="http://www.w3.org/2000/svg" viewBox="0 0 1000 259.25925925925924" preserveAspectRatio="xMaxYMax slice"><g transform="scale(0.8818342151675485)"><rect x="0" y="0" width="1134" height="294" fill="#ffffff"/><rect x="336" y="0" width="14" height="14" fill="#e3e4e5"/><rect x="336" y="0" width="14" height="14" fill="#f6f6f6"/><rect x="476" y="0" width="14" height="14" fill="#ffffff"/><rect x="476" y="0" width="14" height="14" fill="#fefefe"/><rect x="574" y="0" width="14" height="14" fill="#abaeb2"/><rect x="574" y="0" width="14" height="14" fill="#fdfdfd"/><rect x="854" y="0" width="14" height="14" fill="#fefefe"/><rect x="854" y="0" width="14" height="14" fill="#fbfbfb"/><rect x="0" y="14" width="14" height="14" fill="#fcfcfc"/><rect x="0" y="14" width="14" height="14" fill="#fcfcfc"/><rect x="126" y="14" width="14" height="14" fill="#d8dadb"/><rect x="126" y="14" width="14" height="14" fill="#ffecd0"/><rect x="140" y="14" width="14" height="14" fill="#f2f2f2"/><rect x="140" y="14" width="14" height="14" fill="#fff8ed"/><rect x="490" y="14" width="14" height="14" fill="#f7f7f7"/><rect x="490" y="14" width="14" height="14" fill="#313941"/><rect x="630" y="14" width="14" height="14" fill="#f9f9f9"/><rect x="630" y="14" width="14" height="14" fill="#fcfcfc"/><rect x="644" y="14" width="14" height="14" fill="#aeb1b4"/><rect x="644" y="14" width="14" height="14" fill="#f9f9f9"/><rect x="742" y="14" width="14" height="14" fill="#fdfdfd"/><rect x="742" y="14" width="14" height="14" fill="#f5f5f5"/><rect x="854" y="14" width="14" height="14" fill="#f7f7f7"/><rect x="854" y="14" width="14" height="14" fill="#f1f1f1"/><rect x="1036" y="14" width="14" height="14" fill="#f8f8f8"/><rect x="1036" y="14" width="14" height="14" fill="#787d83"/><rect x="210" y="28" width="14" height="14" fill="#8a8f94"/><rect x="210" y="28" width="14" height="14" fill="#ffffff"/><rect x="280" y="28" width="14" height="14" fill="#ffa524"/><rect x="280" y="28" width="14" height="14" fill="#efefef"/><rect x="350" y="28" width="14" height="14" fill="#f4f4f4"/><rect x="350" y="28" width="14" height="14" fill="#f9f9f9"/><rect x="420" y="28" width="14" height="14" fill="#ffcc84"/><rect x="420" y="28" width="14" height="14" fill="#ffe5c0"/><rect x="518" y="28" width="14" height="14" fill="#f5f5f5"/><rect x="518" y="28" width="14" height="14" fill="#474e56"/><rect x="742" y="28" width="14" height="14" fill="#f9f9f9"/><rect x="742" y="28" width="14" height="14" fill="#f3f3f3"/><rect x="854" y="28" width="14" height="14" fill="#ffe4bd"/><rect x="854" y="28" width="14" height="14" fill="#ffb142"/><rect x="994" y="28" width="14" height="14" fill="#f5f5f5"/><rect x="994" y="28" width="14" height="14" fill="#ffb954"/><rect x="1008" y="28" width="14" height="14" fill="#696f76"/><rect x="1008" y="28" width="14" height="14" fill="#a0a4a8"/><rect x="1078" y="28" width="14" height="14" fill="#ffcf8c"/><rect x="1078" y="28" width="14" height="14" fill="#fcfcfc"/><rect x="28" y="42" width="14" height="14" fill="#f9f9f9"/><rect x="28" y="42" width="14" height="14" fill="#fff9ef"/><rect x="294" y="42" width="14" height="14" fill="#333b44"/><rect x="294" y="42" width="14" height="14" fill="#c2c5c7"/><rect x="350" y="42" width="14" height="14" fill="#f8f8f8"/><rect x="350" y="42" width="14" height="14" fill="#ffe9c9"/><rect x="364" y="42" width="14" height="14" fill="#656b72"/><rect x="364" y="42" width="14" height="14" fill="#fbfbfb"/><rect x="448" y="42" width="14" height="14" fill="#f2f2f2"/><rect x="448" y="42" width="14" height="14" fill="#6d7379"/><rect x="490" y="42" width="14" height="14" fill="#f7f7f7"/><rect x="490" y="42" width="14" height="14" fill="#ffab33"/><rect x="644" y="42" width="14" height="14" fill="#fbfbfb"/><rect x="644" y="42" width="14" height="14" fill="#f5f5f5"/><rect x="896" y="42" width="14" height="14" fill="#fbfbfb"/><rect x="896" y="42" width="14" height="14" fill="#fafafa"/><rect x="252" y="56" width="14" height="14" fill="#ffe5c0"/><rect x="252" y="56" width="14" height="14" fill="#9c9fa4"/><rect x="546" y="56" width="14" height="14" fill="#fefefe"/><rect x="546" y="56" width="14" height="14" fill="#ffd497"/><rect x="714" y="56" width="14" height="14" fill="#525860"/><rect x="714" y="56" width="14" height="14" fill="#dddee0"/><rect x="770" y="56" width="14" height="14" fill="#fbfbfb"/><rect x="770" y="56" width="14" height="14" fill="#f6f6f6"/><rect x="1008" y="56" width="14" height="14" fill="#fafafa"/><rect x="1008" y="56" width="14" height="14" fill="#fdfdfd"/><rect x="1120" y="56" width="14" height="14" fill="#f0f0f0"/><rect x="1120" y="56" width="14" height="14" fill="#f0f0f0"/><rect x="476" y="70" width="14" height="14" fill="#f8f8f7"/><rect x="476" y="70" width="14" height="14" fill="#8d9196"/><rect x="532" y="70" width="14" height="14" fill="#fcfcfc"/><rect x="532" y="70" width="14" height="14" fill="#f9f9f9"/><rect x="686" y="70" width="14" height="14" fill="#fbfbfb"/><rect x="686" y="70" width="14" height="14" fill="#fcfcfc"/><rect x="714" y="70" width="14" height="14" fill="#ffd395"/><rect x="714" y="70" width="14" height="14" fill="#343c45"/><rect x="728" y="70" width="14" height="14" fill="#efefee"/><rect x="728" y="70" width="14" height="14" fill="#fbfbfb"/><rect x="826" y="70" width="14" height="14" fill="#343c44"/><rect x="826" y="70" width="14" height="14" fill="#f6f6f6"/><rect x="966" y="70" width="14" height="14" fill="#e0e1e2"/><rect x="966" y="70" width="14" height="14" fill="#f4f4f3"/><rect x="1092" y="70" width="14" height="14" fill="#f4f4f4"/><rect x="1092" y="70" width="14" height="14" fill="#ffb955"/><rect x="238" y="84" width="14" height="14" fill="#f1f1f0"/><rect x="238" y="84" width="14" height="14" fill="#fefefe"/><rect x="322" y="84" width="14" height="14" fill="#efefef"/><rect x="322" y="84" width="14" height="14" fill="#565c63"/><rect x="476" y="84" width="14" height="14" fill="#dddee0"/><rect x="476" y="84" width="14" height="14" fill="#f8f8f8"/><rect x="532" y="84" width="14" height="14" fill="#fbfbfa"/><rect x="532" y="84" width="14" height="14" fill="#f8f8f8"/><rect x="728" y="84" width="14" height="14" fill="#ffa525"/><rect x="728" y="84" width="14" height="14" fill="#c4c7c9"/><rect x="210" y="98" width="14" height="14" fill="#fffaf2"/><rect x="210" y="98" width="14" height="14" fill="#fbfbfb"/><rect x="224" y="98" width="14" height="14" fill="#f5f5f5"/><rect x="224" y="98" width="14" height="14" fill="#fafafa"/><rect x="420" y="98" width="14" height="14" fill="#fefefe"/><rect x="420" y="98" width="14" height="14" fill="#d4d5d7"/><rect x="476" y="98" width="14" height="14" fill="#fcfcfc"/><rect x="476" y="98" width="14" height="14" fill="#f8f8f8"/><rect x="546" y="98" width="14" height="14" fill="#f5f5f5"/><rect x="546" y="98" width="14" height="14" fill="#9a9ea2"/><rect x="560" y="98" width="14" height="14" fill="#f8f8f8"/><rect x="560" y="98" width="14" height="14" fill="#ffae3b"/><rect x="574" y="98" width="14" height="14" fill="#989ca0"/><rect x="574" y="98" width="14" height="14" fill="#aaadb1"/><rect x="630" y="98" width="14" height="14" fill="#fff2e1"/><rect x="630" y="98" width="14" height="14" fill="#fcfcfc"/><rect x="686" y="98" width="14" height="14" fill="#ffa525"/><rect x="686" y="98" width="14" height="14" fill="#ffab34"/><rect x="826" y="98" width="14" height="14" fill="#ffce88"/><rect x="826" y="98" width="14" height="14" fill="#fefefe"/><rect x="1050" y="98" width="14" height="14" fill="#f9f9f9"/><rect x="1050" y="98" width="14" height="14" fill="#f7f7f7"/><rect x="266" y="112" width="14" height="14" fill="#81868c"/><rect x="266" y="112" width="14" height="14" fill="#434a52"/><rect x="350" y="112" width="14" height="14" fill="#f5f5f5"/><rect x="350" y="112" width="14" height="14" fill="#ffe6c2"/><rect x="588" y="112" width="14" height="14" fill="#303841"/><rect x="588" y="112" width="14" height="14" fill="#ededee"/><rect x="742" y="112" width="14" height="14" fill="#f2f2f2"/><rect x="742" y="112" width="14" height="14" fill="#f2f2f3"/><rect x="910" y="112" width="14" height="14" fill="#dfe1e2"/><rect x="910" y="112" width="14" height="14" fill="#f1f1f1"/><rect x="924" y="112" width="14" height="14" fill="#353c45"/><rect x="924" y="112" width="14" height="14" fill="#f1f1f0"/><rect x="1050" y="112" width="14" height="14" fill="#ffe5bf"/><rect x="1050" y="112" width="14" height="14" fill="#fcfcfc"/><rect x="280" y="126" width="14" height="14" fill="#f4f4f4"/><rect x="280" y="126" width="14" height="14" fill="#ffe5c0"/><rect x="364" y="126" width="14" height="14" fill="#ffb040"/><rect x="364" y="126" width="14" height="14" fill="#f9f9f9"/><rect x="546" y="126" width="14" height="14" fill="#fffaf4"/><rect x="546" y="126" width="14" height="14" fill="#fbfbfb"/><rect x="574" y="126" width="14" height="14" fill="#f5f5f5"/><rect x="574" y="126" width="14" height="14" fill="#8d9196"/><rect x="602" y="126" width="14" height="14" fill="#f2f2f2"/><rect x="602" y="126" width="14" height="14" fill="#a6a9ad"/><rect x="686" y="126" width="14" height="14" fill="#fcfcfc"/><rect x="686" y="126" width="14" height="14" fill="#ffc470"/><rect x="728" y="126" width="14" height="14" fill="#9b9fa4"/><rect x="728" y="126" width="14" height="14" fill="#efefef"/><rect x="896" y="126" width="14" height="14" fill="#f0f0f0"/><rect x="896" y="126" width="14" height="14" fill="#f9f9f9"/><rect x="1022" y="126" width="14" height="14" fill="#fcfcfb"/><rect x="1022" y="126" width="14" height="14" fill="#f4f4f3"/><rect x="1036" y="126" width="14" height="14" fill="#fdfdfd"/><rect x="1036" y="126" width="14" height="14" fill="#f9f9f9"/><rect x="28" y="140" width="14" height="14" fill="#adb1b4"/><rect x="28" y="140" width="14" height="14" fill="#fbfbfb"/><rect x="70" y="140" width="14" height="14" fill="#ffc573"/><rect x="70" y="140" width="14" height="14" fill="#f9f9f9"/><rect x="140" y="140" width="14" height="14" fill="#ffb346"/><rect x="140" y="140" width="14" height="14" fill="#f3f3f2"/><rect x="182" y="140" width="14" height="14" fill="#fafafa"/><rect x="182" y="140" width="14" height="14" fill="#f3f3f3"/><rect x="252" y="140" width="14" height="14" fill="#ffac35"/><rect x="252" y="140" width="14" height="14" fill="#fbfbfb"/><rect x="378" y="140" width="14" height="14" fill="#4e545c"/><rect x="378" y="140" width="14" height="14" fill="#f6f6f6"/><rect x="448" y="140" width="14" height="14" fill="#f3f3f3"/><rect x="448" y="140" width="14" height="14" fill="#a8abaf"/><rect x="1092" y="140" width="14" height="14" fill="#f5f5f5"/><rect x="1092" y="140" width="14" height="14" fill="#ffd190"/><rect x="196" y="154" width="14" height="14" fill="#f3f3f3"/><rect x="196" y="154" width="14" height="14" fill="#efefef"/><rect x="266" y="154" width="14" height="14" fill="#f4f4f4"/><rect x="266" y="154" width="14" height="14" fill="#aaadb1"/><rect x="574" y="154" width="14" height="14" fill="#f5f5f4"/><rect x="574" y="154" width="14" height="14" fill="#c5c8ca"/><rect x="602" y="154" width="14" height="14" fill="#d9dbdc"/><rect x="602" y="154" width="14" height="14" fill="#f8f8f8"/><rect x="798" y="154" width="14" height="14" fill="#f2f2f2"/><rect x="798" y="154" width="14" height="14" fill="#f3f3f3"/><rect x="980" y="154" width="14" height="14" fill="#f7f7f7"/><rect x="980" y="154" width="14" height="14" fill="#ffe6c3"/><rect x="1022" y="154" width="14" height="14" fill="#f4f4f4"/><rect x="1022" y="154" width="14" height="14" fill="#f2f2f1"/><rect x="1106" y="154" width="14" height="14" fill="#f6f6f5"/><rect x="1106" y="154" width="14" height="14" fill="#ffa526"/><rect x="14" y="168" width="14" height="14" fill="#f4f4f4"/><rect x="14" y="168" width="14" height="14" fill="#ffd599"/><rect x="224" y="168" width="14" height="14" fill="#f7f7f7"/><rect x="224" y="168" width="14" height="14" fill="#f5f5f5"/><rect x="308" y="168" width="14" height="14" fill="#81868c"/><rect x="308" y="168" width="14" height="14" fill="#3d444d"/><rect x="672" y="168" width="14" height="14" fill="#b3b6ba"/><rect x="672" y="168" width="14" height="14" fill="#f7f7f6"/><rect x="798" y="168" width="14" height="14" fill="#ffe1b6"/><rect x="798" y="168" width="14" height="14" fill="#fafafa"/><rect x="980" y="168" width="14" height="14" fill="#535a61"/><rect x="980" y="168" width="14" height="14" fill="#f1f1f0"/><rect x="1120" y="168" width="14" height="14" fill="#f6f6f6"/><rect x="1120" y="168" width="14" height="14" fill="#efefee"/><rect x="0" y="182" width="14" height="14" fill="#4c535b"/><rect x="0" y="182" width="14" height="14" fill="#ffdcaa"/><rect x="28" y="182" width="14" height="14" fill="#f3f3f3"/><rect x="28" y="182" width="14" height="14" fill="#fdfdfd"/><rect x="84" y="182" width="14" height="14" fill="#ffb74f"/><rect x="84" y="182" width="14" height="14" fill="#afb3b6"/><rect x="364" y="182" width="14" height="14" fill="#ffae3a"/><rect x="364" y="182" width="14" height="14" fill="#ffe0b5"/><rect x="378" y="182" width="14" height="14" fill="#ffba57"/><rect x="378" y="182" width="14" height="14" fill="#ffe4bd"/><rect x="504" y="182" width="14" height="14" fill="#fdfdfd"/><rect x="504" y="182" width="14" height="14" fill="#f5f5f4"/><rect x="728" y="182" width="14" height="14" fill="#f8f8f8"/><rect x="728" y="182" width="14" height="14" fill="#a9adb0"/><rect x="756" y="182" width="14" height="14" fill="#ffca7f"/><rect x="756" y="182" width="14" height="14" fill="#f3f3f2"/><rect x="868" y="182" width="14" height="14" fill="#fdfdfd"/><rect x="868" y="182" width="14" height="14" fill="#f8f8f8"/><rect x="1022" y="182" width="14" height="14" fill="#f7f7f7"/><rect x="1022" y="182" width="14" height="14" fill="#f2f2f1"/><rect x="84" y="196" width="14" height="14" fill="#fbfbfa"/><rect x="84" y="196" width="14" height="14" fill="#f5f5f4"/><rect x="154" y="196" width="14" height="14" fill="#fefefe"/><rect x="154" y="196" width="14" height="14" fill="#f3f3f3"/><rect x="280" y="196" width="14" height="14" fill="#ffaf3c"/><rect x="280" y="196" width="14" height="14" fill="#f9f9f8"/><rect x="406" y="196" width="14" height="14" fill="#efefef"/><rect x="406" y="196" width="14" height="14" fill="#fcfcfc"/><rect x="504" y="196" width="14" height="14" fill="#f0f0f0"/><rect x="504" y="196" width="14" height="14" fill="#7c8187"/><rect x="546" y="196" width="14" height="14" fill="#fdfdfd"/><rect x="546" y="196" width="14" height="14" fill="#fff1dc"/><rect x="672" y="196" width="14" height="14" fill="#f1f1f1"/><rect x="672" y="196" width="14" height="14" fill="#f9f9f9"/><rect x="1064" y="196" width="14" height="14" fill="#a1a5a9"/><rect x="1064" y="196" width="14" height="14" fill="#f0f0f0"/><rect x="56" y="210" width="14" height="14" fill="#a9acb0"/><rect x="56" y="210" width="14" height="14" fill="#ffa627"/><rect x="154" y="210" width="14" height="14" fill="#fbfbfa"/><rect x="154" y="210" width="14" height="14" fill="#ffcb80"/><rect x="196" y="210" width="14" height="14" fill="#f0f0ef"/><rect x="196" y="210" width="14" height="14" fill="#ffc676"/><rect x="224" y="210" width="14" height="14" fill="#999da1"/><rect x="224" y="210" width="14" height="14" fill="#313942"/><rect x="532" y="210" width="14" height="14" fill="#ffca7f"/><rect x="532" y="210" width="14" height="14" fill="#ff9c0f"/><rect x="602" y="210" width="14" height="14" fill="#f6f6f6"/><rect x="602" y="210" width="14" height="14" fill="#f9f9f9"/><rect x="714" y="210" width="14" height="14" fill="#f8f8f8"/><rect x="714" y="210" width="14" height="14" fill="#ffa524"/><rect x="728" y="210" width="14" height="14" fill="#6d7279"/><rect x="728" y="210" width="14" height="14" fill="#f7f7f7"/><rect x="938" y="210" width="14" height="14" fill="#787e83"/><rect x="938" y="210" width="14" height="14" fill="#c4c6c9"/><rect x="1022" y="210" width="14" height="14" fill="#f3f3f3"/><rect x="1022" y="210" width="14" height="14" fill="#575d65"/><rect x="28" y="224" width="14" height="14" fill="#f1f1f1"/><rect x="28" y="224" width="14" height="14" fill="#d0d1d3"/><rect x="84" y="224" width="14" height="14" fill="#fdfdfd"/><rect x="84" y="224" width="14" height="14" fill="#fafafa"/><rect x="140" y="224" width="14" height="14" fill="#f5f5f5"/><rect x="140" y="224" width="14" height="14" fill="#f2f2f2"/><rect x="420" y="224" width="14" height="14" fill="#ffc97c"/><rect x="420" y="224" width="14" height="14" fill="#fbfbfb"/><rect x="434" y="224" width="14" height="14" fill="#fefefe"/><rect x="434" y="224" width="14" height="14" fill="#ffa017"/><rect x="490" y="224" width="14" height="14" fill="#fbfbfb"/><rect x="490" y="224" width="14" height="14" fill="#f1f1f1"/><rect x="532" y="224" width="14" height="14" fill="#eeeeee"/><rect x="532" y="224" width="14" height="14" fill="#fffdf9"/><rect x="560" y="224" width="14" height="14" fill="#ffa626"/><rect x="560" y="224" width="14" height="14" fill="#f7f7f8"/><rect x="602" y="224" width="14" height="14" fill="#f7f7f7"/><rect x="602" y="224" width="14" height="14" fill="#fbfbfb"/><rect x="672" y="224" width="14" height="14" fill="#f6f6f6"/><rect x="672" y="224" width="14" height="14" fill="#fefefe"/><rect x="728" y="224" width="14" height="14" fill="#dcdddf"/><rect x="728" y="224" width="14" height="14" fill="#f0f0ef"/><rect x="868" y="224" width="14" height="14" fill="#495058"/><rect x="868" y="224" width="14" height="14" fill="#f0f0ef"/><rect x="882" y="224" width="14" height="14" fill="#ffbf63"/><rect x="882" y="224" width="14" height="14" fill="#f7f7f6"/><rect x="994" y="224" width="14" height="14" fill="#d3d5d6"/><rect x="994" y="224" width="14" height="14" fill="#f4f4f4"/><rect x="1022" y="224" width="14" height="14" fill="#ffa82c"/><rect x="1022" y="224" width="14" height="14" fill="#fdfdfd"/><rect x="1078" y="224" width="14" height="14" fill="#f1f1f1"/><rect x="1078" y="224" width="14" height="14" fill="#fefefe"/><rect x="42" y="238" width="14" height="14" fill="#dbddde"/><rect x="42" y="238" width="14" height="14" fill="#fff2df"/><rect x="140" y="238" width="14" height="14" fill="#ffd291"/><rect x="140" y="238" width="14" height="14" fill="#ffffff"/><rect x="168" y="238" width="14" height="14" fill="#f2f2f2"/><rect x="168" y="238" width="14" height="14" fill="#ffbe60"/><rect x="280" y="238" width="14" height="14" fill="#fbfbfb"/><rect x="280" y="238" width="14" height="14" fill="#ffffff"/><rect x="322" y="238" width="14" height="14" fill="#373e47"/><rect x="322" y="238" width="14" height="14" fill="#ffbd5f"/><rect x="336" y="238" width="14" height="14" fill="#f4f4f4"/><rect x="336" y="238" width="14" height="14" fill="#fefefe"/><rect x="350" y="238" width="14" height="14" fill="#fafafa"/><rect x="350" y="238" width="14" height="14" fill="#f4f4f4"/><rect x="476" y="238" width="14" height="14" fill="#8a8e93"/><rect x="476" y="238" width="14" height="14" fill="#f5f5f4"/><rect x="560" y="238" width="14" height="14" fill="#efefef"/><rect x="560" y="238" width="14" height="14" fill="#fcfcfc"/><rect x="574" y="238" width="14" height="14" fill="#f1f1f0"/><rect x="574" y="238" width="14" height="14" fill="#f1f1f0"/><rect x="798" y="238" width="14" height="14" fill="#fff7eb"/><rect x="798" y="238" width="14" height="14" fill="#f8f8f8"/><rect x="1092" y="238" width="14" height="14" fill="#f2f2f1"/><rect x="1092" y="238" width="14" height="14" fill="#d9dadc"/><rect x="1120" y="238" width="14" height="14" fill="#fff4e4"/><rect x="1120" y="238" width="14" height="14" fill="#f0f0f0"/><rect x="56" y="252" width="14" height="14" fill="#bdbfc2"/><rect x="56" y="252" width="14" height="14" fill="#4c535b"/><rect x="154" y="252" width="14" height="14" fill="#fefefe"/><rect x="154" y="252" width="14" height="14" fill="#757a80"/><rect x="308" y="252" width="14" height="14" fill="#f1f1f1"/><rect x="308" y="252" width="14" height="14" fill="#8f9499"/><rect x="546" y="252" width="14" height="14" fill="#fffdfb"/><rect x="546" y="252" width="14" height="14" fill="#f0f0f0"/><rect x="896" y="252" width="14" height="14" fill="#ffdcaa"/><rect x="896" y="252" width="14" height="14" fill="#f4f4f4"/><rect x="1008" y="252" width="14" height="14" fill="#efefee"/><rect x="1008" y="252" width="14" height="14" fill="#f9f9f9"/><rect x="28" y="266" width="14" height="14" fill="#686d74"/><rect x="28" y="266" width="14" height="14" fill="#f8f8f8"/><rect x="42" y="266" width="14" height="14" fill="#f9f9f8"/><rect x="42" y="266" width="14" height="14" fill="#f2f2f2"/><rect x="56" y="266" width="14" height="14" fill="#fafafa"/><rect x="56" y="266" width="14" height="14" fill="#eeeeed"/><rect x="140" y="266" width="14" height="14" fill="#f8f8f8"/><rect x="140" y="266" width="14" height="14" fill="#fefefe"/><rect x="196" y="266" width="14" height="14" fill="#f3f3f3"/><rect x="196" y="266" width="14" height="14" fill="#f2f2f2"/><rect x="392" y="266" width="14" height="14" fill="#ffe0b5"/><rect x="392" y="266" width="14" height="14" fill="#484f57"/><rect x="420" y="266" width="14" height="14" fill="#f9f9f8"/><rect x="420" y="266" width="14" height="14" fill="#565d64"/><rect x="686" y="266" width="14" height="14" fill="#f9f9f9"/><rect x="686" y="266" width="14" height="14" fill="#ffdca9"/><rect x="714" y="266" width="14" height="14" fill="#fdfdfd"/><rect x="714" y="266" width="14" height="14" fill="#fdfdfd"/><rect x="826" y="266" width="14" height="14" fill="#f2f2f2"/><rect x="826" y="266" width="14" height="14" fill="#f0f0ef"/><rect x="1008" y="266" width="14" height="14" fill="#f2f2f1"/><rect x="1008" y="266" width="14" height="14" fill="#efefee"/><rect x="1106" y="266" width="14" height="14" fill="#f7f7f7"/><rect x="1106" y="266" width="14" height="14" fill="#3f474f"/><rect x="112" y="280" width="14" height="14" fill="#424951"/><rect x="112" y="280" width="14" height="14" fill="#f3f3f3"/><rect x="126" y="280" width="14" height="14" fill="#ffb64f"/><rect x="126" y="280" width="14" height="14" fill="#ffd291"/><rect x="168" y="280" width="14" height="14" fill="#fdfdfd"/><rect x="168" y="280" width="14" height="14" fill="#f6f6f6"/><rect x="574" y="280" width="14" height="14" fill="#ffab32"/><rect x="574" y="280" width="14" height="14" fill="#f8f8f8"/><rect x="588" y="280" width="14" height="14" fill="#f1f1f1"/><rect x="588" y="280" width="14" height="14" fill="#ff9d11"/><rect x="686" y="280" width="14" height="14" fill="#a3a6aa"/><rect x="686" y="280" width="14" height="14" fill="#474e56"/><rect x="700" y="280" width="14" height="14" fill="#fffbf4"/><rect x="700" y="280" width="14" height="14" fill="#f6f6f6"/><rect x="728" y="280" width="14" height="14" fill="#fcfcfc"/><rect x="728" y="280" width="14" height="14" fill="#ff9f16"/><rect x="742" y="280" width="14" height="14" fill="#80858b"/><rect x="742" y="280" width="14" height="14" fill="#f4f4f4"/><rect x="798" y="280" width="14" height="14" fill="#f3f4f4"/><rect x="798" y="280" width="14" height="14" fill="#a7aaae"/><rect x="854" y="280" width="14" height="14" fill="#f3f3f3"/><rect x="854" y="280" width="14" height="14" fill="#efefee"/><rect x="938" y="280" width="14" height="14" fill="#ffaf3e"/><rect x="938" y="280" width="14" height="14" fill="#f4f4f4"/><rect x="1036" y="280" width="14" height="14" fill="#fafafa"/><rect x="1036" y="280" width="14" height="14" fill="#fcfcfc"/><rect x="1078" y="280" width="14" height="14" fill="#ffe2b9"/><rect x="1078" y="280" width="14" height="14" fill="#343c45"/><rect x="1106" y="280" width="14" height="14" fill="#fcfcfc"/><rect x="1106" y="280" width="14" height="14" fill="#535961"/></g></svg>